<svg xmlns="http://www.w3.org/2000/svg" version="1.1" xmlns:xlink="http://www.w3.org/1999/xlink" width="1500" height="1500" viewBox="0 0 1500 1500"><rect width="1500" height="1500" x="0" y="0" id="background" stroke="transparent" fill="#101010"></rect><svg xml:space="preserve" width="1000" height="1000" data-version="2" data-id="lg_2S76HzbFz8qoqmOOYv" viewBox="0 0 552 471" x="250" y="250"><rect width="100%" height="100%" fill="transparent"></rect><path fill="#dddddd" d="M134.365 393.797v-75.58h50.19v14.26h-41.45l8.32-11.5v70.06l-7.21-11.5h40.81v14.26Zm13.09-31.48v-13.25h35.4v13.25h-21.57Z"></path><rect width="50.66" height="75.58" x="-25.33" y="-37.79" fill="none" rx="0" ry="0" transform="translate(160.2 356.5)"></rect><path fill="#dddddd" d="M195.625 368.777v-13.72h34.29v13.72h-25.28z"></path><rect width="34.29" height="13.72" x="-17.14" y="-6.86" fill="none" rx="0" ry="0" transform="translate(213.27 362.42)"></rect><path fill="#dddddd" d="M256.795 393.797q-1.75-5.67-3.74-12.08-1.99-6.42-3.68-11.88l-7.37-23.69q-1.27-4.02-2.76-8.82-1.48-4.8-3.02-9.7-1.54-4.9-2.91-9.41h19.34q1.91 7.16 4.06 15.29 2.14 8.14 4 15.29l7.15 27.3h1.27l7.53-27.46q2.01-7.26 4.16-15.13 2.15-7.87 4.16-15.29h18.82q-1.43 4.56-2.95 9.44-1.51 4.87-2.99 9.56-1.48 4.69-2.76 8.88l-7.47 23.8q-1.75 5.56-3.71 11.87t-3.76 12.03Z"></path><rect width="70.49" height="75.58" x="-35.24" y="-37.79" fill="none" rx="0" ry="0" transform="translate(269.06 356.5)"></rect><path fill="#dddddd" d="M313.975 393.797v-75.58h17.81v75.58Z"></path><rect width="17.81" height="75.58" x="-8.9" y="-37.79" fill="none" rx="0" ry="0" transform="translate(323.38 356.5)"></rect><path fill="#dddddd" d="M383.035 395.227q-10.23 0-17.7-3.15-7.47-3.16-12.3-8.64-4.82-5.49-7.18-12.54-2.36-7.04-2.36-14.84 0-11.02 4.38-19.95 4.37-8.93 13.03-14.18 8.67-5.24 21.65-5.24 9.86 0 17.23 3.04 7.37 3.05 12.27 8.46 4.9 5.4 7.34 12.5 2.44 7.11 2.44 15.27 0 11.29-4.48 20.14-4.48 8.85-13.12 13.99-8.64 5.14-21.2 5.14m-.26-14.36q5.24 0 9.17-1.99 3.92-1.99 6.51-5.48 2.6-3.5 3.9-7.98 1.3-4.48 1.3-9.46 0-5.25-1.41-9.78-1.4-4.53-4.08-7.92-2.67-3.4-6.54-5.3-3.87-1.91-8.85-1.91-5.14 0-9.09 1.96t-6.6 5.43q-2.65 3.47-4.03 7.98-1.38 4.5-1.38 9.54 0 5.03 1.33 9.51 1.32 4.48 3.95 7.95 2.62 3.47 6.57 5.46 3.95 1.99 9.25 1.99"></path><rect width="78.34" height="78.54" x="-39.17" y="-39.27" fill="none" rx="0" ry="0" transform="translate(383.17 356.46)"></rect><path fill="#dddddd" d="M11.605 461.117v-17.5l.9 1.69h-7.01v-2.01h14.47v2.01h-7.01l.91-1.69v17.5Z"></path><rect width="14.47" height="17.82" x="-7.24" y="-8.91" fill="none" rx="0" ry="0" transform="translate(13.23 452.7)"></rect><path fill="#dddddd" d="M23.055 461.117v-17.82h11.08v1.94h-10.12l1.25-1.62v17.17l-1.12-1.6h10.01v1.93Zm1.73-8.08v-1.89h8.85v1.89h-5.4Z"></path><rect width="11.1" height="17.82" x="-5.55" y="-8.91" fill="none" rx="0" ry="0" transform="translate(29.1 452.7)"></rect><path fill="#dddddd" d="M45.965 461.397q-2.11 0-3.8-.69-1.7-.69-2.88-1.93-1.19-1.24-1.82-2.92-.63-1.69-.63-3.67 0-2.7 1.11-4.78 1.11-2.09 3.09-3.26 1.97-1.18 4.6-1.18.88 0 1.72.13.84.12 1.59.34.75.21 1.39.46.63.25 1.1.51l-.2 2.18q-.98-.58-1.9-.93-.92-.36-1.8-.52-.88-.17-1.72-.17-1.92 0-3.42.88-1.5.87-2.36 2.49-.85 1.62-.85 3.86 0 1.49.44 2.8.44 1.31 1.32 2.31.89 1 2.19 1.57 1.31.57 3.05.57.63 0 1.27-.08t1.26-.26q.63-.17 1.23-.47.61-.29 1.2-.69l.17 2.15q-.52.34-1.15.59-.63.25-1.33.4-.69.16-1.42.23-.72.08-1.45.08"></path><rect width="14.6" height="18.43" x="-7.3" y="-9.21" fill="none" rx="0" ry="0" transform="translate(44.63 452.68)"></rect><path fill="#dddddd" d="M55.015 461.117v-17.82h2.04q1.6 2.25 3.08 4.34 1.47 2.08 2.91 4.11l3.86 5.45h.19v-13.9h2.15v17.82h-2.01q-1.33-1.87-2.79-3.94t-3.21-4.54l-3.89-5.49h-.18v13.97Z"></path><rect width="14.23" height="17.82" x="-7.12" y="-8.91" fill="none" rx="0" ry="0" transform="translate(62.63 452.7)"></rect><path fill="#dddddd" d="M81.855 461.397q-2.26 0-3.96-.73-1.7-.73-2.83-2.01-1.13-1.29-1.7-2.95-.56-1.66-.56-3.51 0-2.6 1.06-4.69 1.05-2.09 3.05-3.31 2-1.23 4.87-1.23 2.17 0 3.84.72 1.67.71 2.81 1.97 1.13 1.26 1.71 2.94.57 1.67.57 3.59 0 2.63-1.05 4.72-1.05 2.08-3.03 3.28-1.99 1.21-4.78 1.21m-.06-1.95q1.71 0 2.95-.59 1.24-.6 2.04-1.62.81-1.03 1.2-2.33.38-1.31.38-2.72 0-1.53-.42-2.85-.41-1.32-1.25-2.31-.83-.99-2.05-1.55-1.23-.56-2.85-.56-1.68 0-2.92.59t-2.07 1.61q-.82 1.02-1.24 2.32-.41 1.31-.41 2.75 0 1.45.4 2.75t1.22 2.32q.82 1.01 2.07 1.6 1.25.59 2.95.59"></path><rect width="17.91" height="18.43" x="-8.96" y="-9.21" fill="none" rx="0" ry="0" transform="translate(82.26 452.68)"></rect><path fill="#dddddd" d="M94.295 461.117v-17.82h2.26v17.47l-.85-1.66h9.73v2.01Z"></path><rect width="11.14" height="17.82" x="-5.57" y="-8.91" fill="none" rx="0" ry="0" transform="translate(100.36 452.7)"></rect><path fill="#dddddd" d="M116.135 461.397q-2.27 0-3.97-.73-1.7-.73-2.83-2.01-1.13-1.29-1.69-2.95-.56-1.66-.56-3.51 0-2.6 1.05-4.69 1.06-2.09 3.06-3.31 2-1.23 4.86-1.23 2.18 0 3.84.72 1.67.71 2.81 1.97 1.14 1.26 1.71 2.94.58 1.67.58 3.59 0 2.63-1.05 4.72-1.05 2.08-3.04 3.28-1.99 1.21-4.77 1.21m-.07-1.95q1.72 0 2.95-.59 1.24-.6 2.05-1.62.8-1.03 1.19-2.33.39-1.31.39-2.72 0-1.53-.42-2.85t-1.25-2.31q-.83-.99-2.06-1.55-1.22-.56-2.85-.56-1.67 0-2.92.59-1.24.59-2.06 1.61-.83 1.02-1.24 2.32-.41 1.31-.41 2.75 0 1.45.4 2.75t1.21 2.32q.82 1.01 2.07 1.6 1.25.59 2.95.59"></path><rect width="17.91" height="18.43" x="-8.96" y="-9.21" fill="none" rx="0" ry="0" transform="translate(116.54 452.68)"></rect><path fill="#dddddd" d="M137.005 461.387q-2.32 0-4.09-.7-1.77-.69-2.97-1.94-1.2-1.25-1.82-2.93-.62-1.68-.62-3.65 0-2.68 1.11-4.76 1.1-2.09 3.12-3.26 2.02-1.18 4.76-1.18.94 0 1.82.13.88.12 1.66.34.78.22 1.44.47.65.25 1.13.5l-.2 2.18q-1.04-.58-2.01-.93-.98-.36-1.9-.52-.93-.17-1.8-.17-1.49 0-2.74.49-1.24.49-2.15 1.43-.91.93-1.41 2.27-.49 1.34-.49 3.03 0 1.52.43 2.85.43 1.32 1.32 2.32.9 1 2.29 1.56 1.38.55 3.28.55.7 0 1.4-.06.7-.07 1.38-.23.69-.16 1.35-.4.66-.24 1.29-.58l.26 2.12q-.43.2-1.06.39-.63.19-1.4.35-.78.15-1.64.24-.85.09-1.74.09m3.7-1.03v-8.19h2.14v8.15Z"></path><rect width="15.34" height="18.42" x="-7.67" y="-9.21" fill="none" rx="0" ry="0" transform="translate(135.68 452.68)"></rect><path fill="#dddddd" d="M146.935 461.117v-17.82h2.3v17.82Zm-.74-19.66 1.7-2.27q.85-1.13 1.69-2.27l2.31-.02q-.69.77-1.36 1.53-.67.76-1.34 1.51-.66.75-1.33 1.48Z"></path><rect width="5.7" height="24.22" x="-2.85" y="-12.11" fill="none" rx="0" ry="0" transform="translate(149.54 449.5)"></rect><path fill="#dddddd" d="M152.305 461.117q.53-1.43 1.09-3.02.57-1.59 1.1-3.01l2.21-6.13q.59-1.65 1.08-2.98.48-1.33.97-2.68h2.98q.48 1.37.96 2.7.47 1.32 1.06 2.97l2.2 6.14q.53 1.48 1.08 3.03l1.07 2.98h-2.35l-1.11-3.21q-.56-1.66-1.06-3.12l-3.25-9.45h-.22l-3.27 9.36q-.54 1.52-1.11 3.19-.58 1.67-1.14 3.23Zm3.3-4.47.2-1.78h9.03l.16 1.78Z"></path><rect width="15.8" height="17.82" x="-7.9" y="-8.91" fill="none" rx="0" ry="0" transform="translate(160.7 452.7)"></rect><path fill="#dddddd" d="M189.745 465.337q-.79-.67-1.57-1.31l-1.57-1.29-2.01-1.68 1.24-1.3 2.5 1.94q.81.64 1.63 1.27.82.63 1.8 1.4Zm-5.84-3.94q-2.26 0-3.96-.73-1.7-.73-2.83-2.01-1.13-1.29-1.7-2.95-.56-1.66-.56-3.51 0-2.6 1.06-4.69 1.05-2.09 3.05-3.31 2-1.23 4.87-1.23 2.17 0 3.84.72 1.67.71 2.81 1.97 1.13 1.26 1.71 2.94.57 1.67.57 3.59 0 2.63-1.05 4.72-1.05 2.08-3.03 3.28-1.99 1.21-4.78 1.21m-.06-1.95q1.71 0 2.95-.59 1.24-.6 2.04-1.62.81-1.03 1.2-2.33.38-1.31.38-2.72 0-1.53-.42-2.85-.41-1.32-1.25-2.31-.83-.99-2.05-1.55-1.23-.56-2.85-.56-1.68 0-2.92.59t-2.07 1.61q-.82 1.02-1.24 2.32-.41 1.31-.41 2.75 0 1.45.4 2.75t1.22 2.32q.82 1.01 2.07 1.6 1.25.59 2.95.59"></path><rect width="17.91" height="22.37" x="-8.96" y="-11.19" fill="none" rx="0" ry="0" transform="translate(184.31 454.65)"></rect><path fill="#dddddd" d="M203.165 461.397q-2.48 0-4.04-.86-1.56-.85-2.29-2.41t-.73-3.63v-11.2h2.25v10.97q0 1.62.48 2.78.47 1.16 1.53 1.78 1.05.62 2.8.62 1.77 0 2.81-.62t1.51-1.78q.46-1.16.46-2.8v-10.95h2.25v11.2q0 2.07-.74 3.63t-2.29 2.41q-1.55.86-4 .86"></path><rect width="14.09" height="18.1" x="-7.04" y="-9.05" fill="none" rx="0" ry="0" transform="translate(203.65 452.85)"></rect><path fill="#dddddd" d="M214.605 461.117v-17.82h11.08v1.94h-10.12l1.25-1.62v17.17l-1.12-1.6h10.01v1.93Zm1.73-8.08v-1.89h8.85v1.89h-5.4Z"></path><rect width="11.1" height="17.82" x="-5.55" y="-8.91" fill="none" rx="0" ry="0" transform="translate(220.66 452.7)"></rect><path fill="#dddddd" d="M234.235 461.117v-17.82h11.07v1.94h-10.11l1.25-1.62v17.17l-1.13-1.6h10.02v1.93Zm1.72-8.08v-1.89h8.85v1.89h-5.4Z"></path><rect width="11.1" height="17.82" x="-5.55" y="-8.91" fill="none" rx="0" ry="0" transform="translate(240.28 452.7)"></rect><path fill="#dddddd" d="M253.815 461.117q-.47-1.33-1.02-2.85l-1-2.8-2-5.58q-.34-.97-.75-2.08-.4-1.12-.81-2.29-.42-1.16-.8-2.22h2.51q.65 1.91 1.4 4.09.75 2.17 1.4 4.08l2.51 7.32h.21l2.54-7.35q.66-1.95 1.39-4.05.72-2.1 1.4-4.09h2.42q-.37 1.07-.78 2.22-.4 1.14-.8 2.26-.4 1.12-.74 2.08l-2 5.63q-.46 1.3-.99 2.78-.52 1.49-1.01 2.85Z"></path><rect width="15.78" height="17.82" x="-7.89" y="-8.91" fill="none" rx="0" ry="0" transform="translate(255.82 452.7)"></rect><path fill="#dddddd" d="M273.685 461.397q-2.27 0-3.97-.73-1.7-.73-2.83-2.01-1.13-1.29-1.69-2.95-.56-1.66-.56-3.51 0-2.6 1.05-4.69 1.06-2.09 3.06-3.31 2-1.23 4.86-1.23 2.18 0 3.84.72 1.67.71 2.81 1.97 1.14 1.26 1.71 2.94.58 1.67.58 3.59 0 2.63-1.05 4.72-1.05 2.08-3.04 3.28-1.99 1.21-4.77 1.21m-.07-1.95q1.72 0 2.95-.59 1.24-.6 2.05-1.62.8-1.03 1.19-2.33.39-1.31.39-2.72 0-1.53-.42-2.85t-1.25-2.31q-.83-.99-2.06-1.55-1.22-.56-2.85-.56-1.67 0-2.92.59-1.24.59-2.06 1.61-.83 1.02-1.24 2.32-.41 1.31-.41 2.75 0 1.45.4 2.75t1.21 2.32q.82 1.01 2.07 1.6 1.25.59 2.95.59"></path><rect width="17.91" height="18.43" x="-8.96" y="-9.21" fill="none" rx="0" ry="0" transform="translate(274.09 452.68)"></rect><path fill="#dddddd" d="M286.115 461.117v-17.82h2.27v17.47l-.85-1.66h9.72v2.01Z"></path><rect width="11.14" height="17.82" x="-5.57" y="-8.91" fill="none" rx="0" ry="0" transform="translate(292.19 452.7)"></rect><path fill="#dddddd" d="M307.005 461.397q-2.49 0-4.04-.86-1.56-.85-2.29-2.41t-.73-3.63v-11.2h2.25v10.97q0 1.62.47 2.78.48 1.16 1.53 1.78 1.06.62 2.81.62 1.76 0 2.81-.62 1.04-.62 1.5-1.78.47-1.16.47-2.8v-10.95h2.25v11.2q0 2.07-.74 3.63t-2.29 2.41q-1.55.86-4 .86"></path><rect width="14.09" height="18.1" x="-7.04" y="-9.05" fill="none" rx="0" ry="0" transform="translate(307.49 452.85)"></rect><path fill="#dddddd" d="M326.515 461.397q-2.11 0-3.8-.69-1.7-.69-2.88-1.93-1.19-1.24-1.82-2.92-.63-1.69-.63-3.67 0-2.7 1.11-4.78 1.11-2.09 3.09-3.26 1.97-1.18 4.6-1.18.88 0 1.72.13.84.12 1.59.34.75.21 1.39.46.63.25 1.1.51l-.2 2.18q-.98-.58-1.9-.93-.92-.36-1.8-.52-.88-.17-1.72-.17-1.92 0-3.42.88-1.5.87-2.36 2.49-.85 1.62-.85 3.86 0 1.49.44 2.8.44 1.31 1.32 2.31.89 1 2.19 1.57 1.31.57 3.05.57.63 0 1.27-.08t1.26-.26q.63-.17 1.23-.47.61-.29 1.2-.69l.17 2.15q-.52.34-1.15.59-.63.25-1.33.4-.69.16-1.42.23-.72.08-1.45.08"></path><rect width="14.6" height="18.43" x="-7.3" y="-9.21" fill="none" rx="0" ry="0" transform="translate(325.19 452.68)"></rect><path fill="#dddddd" d="M335.605 461.117v-17.82h2.3v17.82Z"></path><rect width="2.3" height="17.82" x="-1.15" y="-8.91" fill="none" rx="0" ry="0" transform="translate(337.25 452.7)"></rect><path fill="#dddddd" d="M350.545 461.397q-2.26 0-3.96-.73-1.7-.73-2.84-2.01-1.13-1.29-1.69-2.95-.56-1.66-.56-3.51 0-2.6 1.05-4.69 1.06-2.09 3.06-3.31 2-1.23 4.86-1.23 2.18 0 3.85.72 1.67.71 2.8 1.97 1.14 1.26 1.72 2.94.57 1.67.57 3.59 0 2.63-1.05 4.72-1.05 2.08-3.04 3.28-1.98 1.21-4.77 1.21m-.06-1.95q1.71 0 2.95-.59 1.23-.6 2.04-1.62.81-1.03 1.19-2.33.39-1.31.39-2.72 0-1.53-.42-2.85t-1.25-2.31q-.83-.99-2.05-1.55-1.23-.56-2.85-.56-1.68 0-2.92.59-1.25.59-2.07 1.61-.83 1.02-1.24 2.32-.41 1.31-.41 2.75 0 1.45.4 2.75t1.22 2.32q.82 1.01 2.07 1.6 1.25.59 2.95.59"></path><rect width="17.91" height="18.43" x="-8.96" y="-9.21" fill="none" rx="0" ry="0" transform="translate(350.95 452.68)"></rect><path fill="#dddddd" d="M362.985 461.117v-17.82h2.03q1.6 2.25 3.08 4.34 1.47 2.08 2.91 4.11l3.86 5.45h.19v-13.9h2.15v17.82h-2.01q-1.33-1.87-2.79-3.94t-3.21-4.54l-3.89-5.49h-.17v13.97Z"></path><rect width="14.22" height="17.82" x="-7.11" y="-8.91" fill="none" rx="0" ry="0" transform="translate(370.6 452.7)"></rect><path fill="#dddddd" d="M380.255 461.117q.53-1.43 1.09-3.02.57-1.59 1.1-3.01l2.21-6.13q.59-1.65 1.08-2.98.48-1.33.97-2.68h2.98q.48 1.37.96 2.7.47 1.32 1.06 2.97l2.2 6.14q.53 1.48 1.08 3.03l1.07 2.98h-2.35l-1.11-3.21q-.56-1.66-1.06-3.12l-3.25-9.45h-.22l-3.27 9.36q-.54 1.52-1.11 3.19-.58 1.67-1.14 3.23Zm3.3-4.47.2-1.78h9.03l.16 1.78Z"></path><rect width="15.8" height="17.82" x="-7.9" y="-8.91" fill="none" rx="0" ry="0" transform="translate(388.65 452.7)"></rect><path fill="#dddddd" d="M411.945 461.397q-2.11 0-3.81-.69-1.69-.69-2.88-1.93t-1.82-2.92q-.63-1.69-.63-3.67 0-2.7 1.11-4.78 1.12-2.09 3.09-3.26 1.98-1.18 4.6-1.18.89 0 1.73.13.83.12 1.58.34.75.21 1.39.46.64.25 1.1.51l-.2 2.18q-.97-.58-1.89-.93-.92-.36-1.8-.52-.88-.17-1.72-.17-1.93 0-3.43.88-1.5.87-2.35 2.49-.86 1.62-.86 3.86 0 1.49.44 2.8.45 1.31 1.33 2.31.88 1 2.19 1.57 1.3.57 3.04.57.64 0 1.28-.08.63-.08 1.26-.26.62-.17 1.23-.47.61-.29 1.19-.69l.18 2.15q-.53.34-1.16.59-.63.25-1.32.4-.7.16-1.42.23-.73.08-1.45.08"></path><rect width="14.6" height="18.43" x="-7.3" y="-9.21" fill="none" rx="0" ry="0" transform="translate(410.6 452.68)"></rect><path fill="#dddddd" d="M428.985 461.397q-2.27 0-3.97-.73-1.7-.73-2.83-2.01-1.13-1.29-1.69-2.95-.56-1.66-.56-3.51 0-2.6 1.05-4.69 1.06-2.09 3.06-3.31 2-1.23 4.86-1.23 2.18 0 3.84.72 1.67.71 2.81 1.97 1.14 1.26 1.71 2.94.58 1.67.58 3.59 0 2.63-1.05 4.72-1.05 2.08-3.04 3.28-1.99 1.21-4.77 1.21m-.07-1.95q1.72 0 2.95-.59 1.24-.6 2.05-1.62.8-1.03 1.19-2.33.39-1.31.39-2.72 0-1.53-.42-2.85t-1.25-2.31q-.83-.99-2.06-1.55-1.22-.56-2.85-.56-1.67 0-2.92.59-1.24.59-2.06 1.61-.83 1.02-1.24 2.32-.41 1.31-.41 2.75 0 1.45.4 2.75t1.21 2.32q.82 1.01 2.07 1.6 1.25.59 2.95.59"></path><rect width="17.91" height="18.43" x="-8.96" y="-9.21" fill="none" rx="0" ry="0" transform="translate(429.39 452.68)"></rect><path fill="#dddddd" d="M441.415 461.117v-17.82h2.04q1.6 2.25 3.08 4.34 1.47 2.08 2.91 4.11l3.86 5.45h.19v-13.9h2.15v17.82h-2.01q-1.33-1.87-2.79-3.94t-3.21-4.54l-3.89-5.49h-.18v13.97Z"></path><rect width="14.23" height="17.82" x="-7.12" y="-8.91" fill="none" rx="0" ry="0" transform="translate(449.03 452.7)"></rect><path fill="#dddddd" d="M469.805 461.117q-.47-1.33-1.02-2.85l-1-2.8-2-5.58q-.34-.97-.75-2.08l-.82-2.29q-.41-1.16-.8-2.22h2.52q.65 1.91 1.4 4.09.75 2.17 1.4 4.08l2.51 7.32h.21l2.54-7.35q.66-1.95 1.39-4.05.72-2.1 1.4-4.09h2.42q-.37 1.07-.78 2.22-.41 1.14-.81 2.26-.4 1.12-.73 2.08l-2 5.63q-.47 1.3-.99 2.78-.53 1.49-1.01 2.85Z"></path><rect width="15.79" height="17.82" x="-7.89" y="-8.91" fill="none" rx="0" ry="0" transform="translate(471.81 452.7)"></rect><path fill="#dddddd" d="M482.255 461.117v-17.82h2.3v17.82Z"></path><rect width="2.3" height="17.82" x="-1.15" y="-8.91" fill="none" rx="0" ry="0" transform="translate(483.9 452.7)"></rect><path fill="#dddddd" d="M494.385 461.397q-1.12 0-2.25-.21-1.13-.2-2.09-.51-.95-.31-1.54-.62l.21-2.14q.84.47 1.75.81.9.34 1.85.53.94.19 1.93.19 1.11 0 2-.31.9-.3 1.42-.97.52-.67.52-1.76 0-.95-.54-1.57-.54-.62-1.56-1.07-1.02-.45-2.47-.9-1.7-.53-2.9-1.16-1.2-.62-1.83-1.54-.63-.92-.63-2.35 0-1.38.66-2.48.65-1.1 1.95-1.73 1.3-.64 3.23-.64.8 0 1.58.12.78.11 1.49.3.72.2 1.3.43.59.24 1 .49l-.22 2.15q-.76-.51-1.61-.85-.85-.35-1.69-.52-.84-.17-1.55-.17-1.01 0-1.86.3-.85.3-1.37.92-.52.62-.52 1.6 0 .85.44 1.41.43.56 1.38 1.01.94.44 2.43.91 2.15.68 3.38 1.37 1.23.7 1.75 1.61.52.91.52 2.24 0 1.46-.65 2.61-.64 1.15-2 1.82-1.36.68-3.51.68"></path><rect width="12.29" height="18.43" x="-6.14" y="-9.21" fill="none" rx="0" ry="0" transform="translate(494.9 452.68)"></rect><path fill="#dddddd" d="M503.905 461.117v-17.82h2.3v17.82Z"></path><rect width="2.3" height="17.82" x="-1.15" y="-8.91" fill="none" rx="0" ry="0" transform="translate(505.56 452.7)"></rect><path fill="#dddddd" d="M518.845 461.397q-2.26 0-3.96-.73-1.7-.73-2.84-2.01-1.13-1.29-1.69-2.95-.56-1.66-.56-3.51 0-2.6 1.05-4.69 1.06-2.09 3.06-3.31 2-1.23 4.86-1.23 2.18 0 3.85.72 1.67.71 2.8 1.97 1.14 1.26 1.72 2.94.57 1.67.57 3.59 0 2.63-1.05 4.72-1.05 2.08-3.04 3.28-1.98 1.21-4.77 1.21m-.06-1.95q1.71 0 2.95-.59 1.23-.6 2.04-1.62.81-1.03 1.19-2.33.39-1.31.39-2.72 0-1.53-.42-2.85t-1.25-2.31q-.83-.99-2.05-1.55-1.23-.56-2.85-.56-1.68 0-2.92.59-1.25.59-2.07 1.61-.83 1.02-1.24 2.32-.41 1.31-.41 2.75 0 1.45.4 2.75t1.22 2.32q.82 1.01 2.07 1.6 1.25.59 2.95.59m-1.89-17.99 1.7-2.27q.85-1.13 1.69-2.27l2.31-.02q-.69.77-1.36 1.53-.67.76-1.34 1.51-.66.75-1.33 1.48Z"></path><rect width="17.91" height="24.5" x="-8.96" y="-12.25" fill="none" rx="0" ry="0" transform="translate(519.25 449.65)"></rect><path fill="#dddddd" d="M531.285 461.117v-17.82h2.03q1.6 2.25 3.08 4.34 1.47 2.08 2.91 4.11l3.86 5.45h.19v-13.9h2.15v17.82h-2.01q-1.33-1.87-2.79-3.94t-3.21-4.54l-3.89-5.49h-.17v13.97Z"></path><rect width="14.22" height="17.82" x="-7.11" y="-8.91" fill="none" rx="0" ry="0" transform="translate(538.9 452.7)"></rect><path fill="#686868" d="M276.215 252.006c-21.978 0-43.955-.063-65.932.064-3.162.015-4.95-.98-6.53-3.78a30087.848 30087.848 0 0 0-65.948-116.32c-1.518-2.673-1.375-4.65.095-7.21 22.199-38.8 44.334-77.648 66.375-116.544 1.517-2.672 3.257-3.557 6.26-3.557q66.122.119 132.244 0c2.957 0 4.68.822 6.214 3.542a22283.286 22283.286 0 0 0 65.505 115.214c2.087 3.637 2.07 6.372 0 10.009a20677.626 20677.626 0 0 0-64.81 113.807c-2.008 3.558-4.221 4.902-8.348 4.854-21.708-.205-43.417-.095-65.141-.095Zm-45.489-195.63V210.44c43.67-24.791 86.66-49.204 130.378-74.027a947123.15 947123.15 0 0 1-130.378-80.035m4.538-5.455c42.769 26.246 84.684 51.97 127.547 78.28-.458-3.462-.664-5.77-1.075-8.032-6.008-33.52-12.048-67.023-18.04-100.542-.838-4.696-.87-4.806-5.565-3.273-27.021 8.775-54.027 17.55-81.048 26.341-6.957 2.261-13.882 4.586-21.835 7.21Zm-12.427 156.529V58.274c-25.235 24.254-49.758 47.828-74.66 71.766 24.792 25.709 49.299 51.133 74.66 77.427Zm13.866 7.842c1.502.57 2.198.917 2.91 1.091 31.763 7.906 63.544 15.827 95.324 23.7 5.122 1.266 5.107 1.17 6.292-3.889 6.8-29.187 13.63-58.374 20.412-87.561.3-1.297.396-2.64.728-4.933-42.231 24.048-83.53 47.591-125.682 71.592Zm-23.495-203.36c.695 1.802 1.107 3.035 1.644 4.189 3.985 8.585 8.174 17.076 11.89 25.772 1.407 3.289 3.02 3.447 6.008 2.466 29.472-9.66 58.991-19.21 88.479-28.807 2.956-.965 5.881-2.056 8.806-3.083-.063-.174-.142-.364-.205-.538zm140.575 19.02c-.3.126-.616.253-.917.395.712 3.984 1.44 7.985 2.135 11.969 5.075 28.586 10.182 57.157 15.178 85.759.475 2.735 1.344 3.494 4.143 2.798 6.372-1.565 12.854-2.75 19.258-4.174 4.19-.933 8.348-2.008 13.154-3.162-17.834-31.527-35.4-62.564-52.966-93.585Zm-203.06 85.442.569.522c.411-.269.885-.49 1.249-.838 22.641-21.645 45.251-43.306 67.924-64.904 1.818-1.723 1.676-3.146.727-5.17-4.047-8.554-7.953-17.187-11.953-25.772-.442-.965-1.138-1.803-2.071-3.257-19.068 33.598-37.757 66.5-56.445 99.42m256.58 15.067c-12.3 2.625-23.352 4.902-34.31 7.479-1.17.269-2.466 2.23-2.798 3.62-6.91 28.998-13.708 58.043-20.49 87.072-.206.885-.222 1.818-.333 2.735.221.047.443.11.664.158 18.894-33.33 37.773-66.643 57.283-101.064ZM323 244.986l.095-.474c-.806-.316-1.58-.712-2.419-.917-29.313-7.384-58.643-14.72-87.94-22.151-2.926-.743-4.934-.411-6.451 2.545-1.803 3.494-4.08 6.751-6.104 10.12-2.055 3.43-4.063 6.893-6.403 10.861H323Zm-115.183-3.92c4.27-7.148 7.827-13.567 11.874-19.654 2.15-3.241 1.913-5.218-.806-8.016-19.827-20.302-39.48-40.777-59.196-61.173-.838-.87-1.771-1.644-2.657-2.45-.221.19-.442.363-.664.553 16.997 29.962 33.978 59.923 51.45 90.755Z"></path></svg></svg>